<?xml version="1.0" standalone="no"?>
<!DOCTYPE svg PUBLIC "-//W3C//DTD SVG 20010904//EN"
 "http://www.w3.org/TR/2001/REC-SVG-20010904/DTD/svg10.dtd">
<svg version="1.0" xmlns="http://www.w3.org/2000/svg"
 width="364.000000pt" height="364.000000pt" viewBox="0 0 364.000000 364.000000"
 preserveAspectRatio="xMidYMid meet">
<metadata>
Created by potrace 1.11, written by Peter Selinger 2001-2013
</metadata>
<g transform="translate(0.000000,364.000000) scale(0.100000,-0.100000)"
fill="#000000" stroke="none">
<path d="M1695 3191 c-527 -216 -1033 -432 -1062 -456 -20 -15 -47 -53 -62
-84 -24 -52 -26 -64 -23 -181 14 -679 286 -1300 750 -1713 204 -182 465 -325
571 -315 116 12 379 165 543 317 310 286 496 570 620 946 79 239 118 450 134
736 8 148 -8 211 -69 275 -39 41 -79 59 -620 284 -445 185 -587 240 -620 240
-27 0 -85 -18 -162 -49z m652 -512 c252 -106 462 -195 466 -199 5 -4 3 -70 -3
-146 -41 -500 -219 -903 -545 -1229 -125 -126 -217 -197 -345 -270 l-60 -34 0
1041 c0 918 2 1039 15 1034 8 -3 221 -92 472 -197z"/>
</g>
</svg>
